<?xml version="1.0" encoding="UTF-8"?>
<svg id="_草图2" xmlns="http://www.w3.org/2000/svg" version="1.1" viewBox="0 0 2048 2048">
  <!-- Generator: Adobe Illustrator 29.5.0, SVG Export Plug-In . SVG Version: 2.1.0 Build 137)  -->
  <defs>
    <style>
      .st0 {
        fill: none;
        stroke: #000;
        stroke-linecap: round;
        stroke-linejoin: round;
        stroke-width: .71px;
      }
    </style>
  </defs>
  <g id="LINE">
    <line class="st0" x1="1004" y1="1031.88" x2="1004" y2="1015.01"/>
  </g>
  <g id="LINE1">
    <line class="st0" x1="1004" y1="1031.99" x2="1004" y2="1031.88"/>
  </g>
  <g id="LINE2">
    <line class="st0" x1="1045" y1="1031.99" x2="1044.92" y2="1032.07"/>
  </g>
  <g id="LINE3">
    <line class="st0" x1="980.5" y1="1041.73" x2="980.67" y2="1041.9"/>
  </g>
  <g id="LINE4">
    <line class="st0" x1="1042.73" y1="979.5" x2="1042.48" y2="979.5"/>
  </g>
  <g id="LINE5">
    <line class="st0" x1="1042.48" y1="979.5" x2="1006.27" y2="979.5"/>
  </g>
  <g id="LINE6">
    <line class="st0" x1="1006.27" y1="1067.5" x2="1006.52" y2="1067.5"/>
  </g>
  <g id="LINE7">
    <line class="st0" x1="1006.27" y1="979.5" x2="1006.1" y2="979.67"/>
  </g>
  <g id="LINE8">
    <line class="st0" x1="1045" y1="1015.12" x2="1045" y2="1031.99"/>
  </g>
  <g id="LINE9">
    <line class="st0" x1="1042.9" y1="1067.33" x2="1068.5" y2="1041.73"/>
  </g>
  <g id="LINE10">
    <line class="st0" x1="1068.5" y1="1005.27" x2="1068.33" y2="1005.1"/>
  </g>
  <g id="LINE11">
    <line class="st0" x1="1016.12" y1="1003" x2="1032.99" y2="1003"/>
  </g>
  <g id="LINE12">
    <line class="st0" x1="980.67" y1="1041.9" x2="1006.27" y2="1067.5"/>
  </g>
  <g id="LINE13">
    <line class="st0" x1="1032.88" y1="1044" x2="1016.01" y2="1044"/>
  </g>
  <g id="LINE14">
    <line class="st0" x1="1004.08" y1="1014.93" x2="1016.01" y2="1003"/>
  </g>
  <g id="LINE15">
    <line class="st0" x1="1016.01" y1="1003" x2="1016.12" y2="1003"/>
  </g>
  <g id="LINE16">
    <line class="st0" x1="1068.5" y1="1041.73" x2="1068.5" y2="1041.48"/>
  </g>
  <g id="LINE17">
    <line class="st0" x1="980.5" y1="1005.27" x2="980.5" y2="1005.52"/>
  </g>
  <g id="LINE18">
    <line class="st0" x1="1068.5" y1="1041.48" x2="1068.5" y2="1005.27"/>
  </g>
  <g id="LINE19">
    <line class="st0" x1="1006.52" y1="1067.5" x2="1042.73" y2="1067.5"/>
  </g>
  <g id="LINE20">
    <line class="st0" x1="1042.73" y1="1067.5" x2="1042.9" y2="1067.33"/>
  </g>
  <g id="LINE21">
    <line class="st0" x1="980.5" y1="1005.52" x2="980.5" y2="1041.73"/>
  </g>
  <g id="LINE22">
    <line class="st0" x1="1044.92" y1="1032.07" x2="1032.99" y2="1044"/>
  </g>
  <g id="LINE23">
    <line class="st0" x1="1045" y1="1015.01" x2="1045" y2="1015.12"/>
  </g>
  <g id="LINE24">
    <line class="st0" x1="1068.33" y1="1005.1" x2="1042.73" y2="979.5"/>
  </g>
  <g id="LINE25">
    <line class="st0" x1="1032.99" y1="1003" x2="1033.07" y2="1003.08"/>
  </g>
  <g id="LINE26">
    <line class="st0" x1="1006.1" y1="979.67" x2="980.5" y2="1005.27"/>
  </g>
  <g id="LINE27">
    <line class="st0" x1="1033.07" y1="1003.08" x2="1045" y2="1015.01"/>
  </g>
  <g id="LINE28">
    <line class="st0" x1="1004" y1="1015.01" x2="1004.08" y2="1014.93"/>
  </g>
  <g id="LINE29">
    <line class="st0" x1="1015.93" y1="1043.92" x2="1004" y2="1031.99"/>
  </g>
  <g id="LINE30">
    <line class="st0" x1="1032.99" y1="1044" x2="1032.88" y2="1044"/>
  </g>
  <g id="LINE31">
    <line class="st0" x1="1016.01" y1="1044" x2="1015.93" y2="1043.92"/>
  </g>
</svg>